#!OML:ASF F:\VICON\USERDATA\INSTALL\rory3\rory3.ASF
:FULLY-SPECIFIED
:DEGREES
928
root 5.22292 16.9642 1.78755 7.33621 -15.306 -6.84583
lowerback 20.9201 -0.712073 4.67388
upperback 4.96565 0.0859325 1.09645
thorax -6.27129 -0.0391707 -1.50089
lowerneck -14.3999 -0.449743 -2.49239
upperneck 37.8172 0.455081 -1.47433
head 15.8105 -0.453739 -0.134243
rclavicle 1.78906e-014 1.19271e-014
rhumerus -34.6095 -8.55093 -17.4039
rradius 35.2818
rwrist 3.95572
rhand -20.1599 -45.7749
rfingers 7.12502
rthumb 6.18541 -75.6646
lclavicle 1.78906e-014 1.19271e-014
lhumerus -36.1652 7.8826 12.7637
lradius 28.516
lwrist 16.7401
lhand -24.5087 -27.713
lfingers 7.12502
lthumb 1.98604 2.25747
rfemur -99.6629 0.430229 28.2441
rtibia 95.0618
rfoot 49.4694 1.38577
rtoes -1.31132
lfemur -28.8199 5.05567 -23.9414
ltibia 41.0548
lfoot -17.023 11.1446
ltoes 15.6076
929
root 5.22264 16.9624 1.7867 7.35847 -15.2449 -6.82855
lowerback 20.9103 -0.740704 4.67895
upperback 4.95132 0.0506251 1.10292
thorax -6.28383 -0.0565733 -1.48768
lowerneck -14.3519 -0.441467 -2.52836
upperneck 37.7843 0.471726 -1.46212
head 15.7822 -0.449658 -0.119234
rclavicle 6.36111e-015 -8.74653e-015
rhumerus -34.6695 -8.2945 -17.4903
rradius 35.5872
rwrist 3.6897
rhand -20.1088 -46.0848
rfingers 7.12502
rthumb 6.23475 -75.9731
lclavicle 6.36111e-015 -8.74653e-015
lhumerus -36.2184 7.91967 12.7528
lradius 28.5106
lwrist 16.5921
lhand -24.3921 -28.9692
lfingers 7.12502
lthumb 2.09867 1.00025
rfemur -99.7451 0.37373 28.2291
rtibia 95.1544
rfoot 49.4542 1.49157
rtoes -1.04018
lfemur -28.8513 4.98452 -23.9529
ltibia 41.0419
lfoot -16.9893 11.1862
ltoes 15.5743
930
root 5.22387 16.9658 1.78747 7.37102 -15.1737 -6.78659
lowerback 20.9517 -0.762615 4.68596
upperback 4.90105 0.0288041 1.10364
thorax -6.36152 -0.0691776 -1.48502
lowerneck -14.2791 -0.440572 -2.51627
upperneck 37.7589 0.494894 -1.53657
head 15.7523 -0.447761 -0.14889
rclavicle 3.06128e-014 1.63003e-014
rhumerus -34.6612 -8.42436 -17.3919
rradius 35.4202
rwrist 3.86289
rhand -20.0849 -45.9167
rfingers 7.12502
rthumb 6.25787 -75.8043
lclavicle 3.06128e-014 1.63003e-014
lhumerus -36.1921 7.91599 12.7438
lradius 28.4525
lwrist 16.4573
lhand -24.2651 -29.9906
lfingers 7.12502
lthumb 2.22129 -0.0223775
rfemur -99.7828 0.268308 28.194
rtibia 95.2312
rfoot 49.3479 1.48292
rtoes -0.729609
lfemur -28.8488 4.87813 -23.9953
ltibia 41.0268
lfoot -16.978 11.26
ltoes 15.6798
931
root 5.2247 16.9674 1.78552 7.38808 -15.1465 -6.83563
lowerback 21.0286 -0.777559 4.74577
upperback 4.86057 0.030631 1.13121
thorax -6.44549 -0.0712154 -1.48942
lowerneck -14.2453 -0.448141 -2.56954
upperneck 37.7906 0.496007 -1.52831
head 15.7604 -0.454199 -0.13589
rclavicle 1.68967e-014 -1.59028e-015
rhumerus -34.5635 -8.7076 -17.225
rradius 35.0092
rwrist 4.16758
rhand -20.2318 -45.558
rfingers 7.12502
rthumb 6.116 -75.4497
lclavicle 1.68967e-014 -1.59028e-015
lhumerus -36.1702 7.97744 12.692
lradius 28.5551
lwrist 16.5517
lhand -24.0458 -26.9065
lfingers 7.12502
lthumb 2.43309 3.05938
rfemur -99.7621 0.247315 28.254
rtibia 95.2481
rfoot 49.318 1.50013
rtoes -0.475851
lfemur -28.8505 4.86674 -23.9464
ltibia 41.0024
lfoot -16.9569 11.2539
ltoes 15.5245
932
root 5.22404 16.9653 1.78539 7.39845 -15.1963 -6.88845
lowerback 21.0211 -0.757807 4.77741
upperback 4.85582 0.0639956 1.14995
thorax -6.44459 -0.0556126 -1.49583
lowerneck -14.1262 -0.41931 -2.54003
upperneck 37.7199 0.538106 -1.56525
head 15.6959 -0.435891 -0.148661
rclavicle -2.60408e-014 1.78906e-014
rhumerus -34.6102 -8.57157 -17.2271
rradius 35.0953
rwrist 3.97876
rhand -20.1712 -45.8908
rfingers 7.12502
rthumb 6.1745 -75.7808
lclavicle -2.60408e-014 1.78906e-014
lhumerus -36.1566 8.0154 12.6632
lradius 28.6697
lwrist 16.6904
lhand -24.6821 -22.6176
lfingers 7.12502
lthumb 1.81855 7.35436
rfemur -99.7342 0.310789 28.3221
rtibia 95.2697
rfoot 49.3549 1.80319
rtoes -0.558387
lfemur -28.8307 4.93763 -23.8979
ltibia 40.9548
lfoot -16.9754 11.2183
ltoes 15.3969
933
root 5.22329 16.9661 1.79052 7.36799 -15.2363 -6.79645
lowerback 20.9474 -0.724669 4.66674
upperback 4.87239 0.0769198 1.12989
thorax -6.38781 -0.0464878 -1.45813
lowerneck -14.0404 -0.388542 -2.49199
upperneck 37.6164 0.568294 -1.57521
head 15.6228 -0.415643 -0.15493
rclavicle 3.35946e-014 -1.39149e-014
rhumerus -34.7123 -8.34779 -17.2945
rradius 35.3943
rwrist 3.71349
rhand -20.051 -46.3114
rfingers 7.12502
rthumb 6.29062 -76.198
lclavicle 3.35946e-014 -1.39149e-014
lhumerus -36.1309 8.05534 12.653
lradius 28.6799
lwrist 16.5514
lhand -25.1806 -22.4606
lfingers 7.12502
lthumb 1.33717 7.51495
rfemur -99.7205 0.307419 28.2469
rtibia 95.3239
rfoot 49.3604 2.31109
rtoes -0.856631
lfemur -28.7588 4.92342 -23.9955
ltibia 40.895
lfoot -17.0394 11.2224
ltoes 15.6074
934
root 5.22388 16.967 1.79729 7.27663 -15.1899 -6.54499
lowerback 20.9498 -0.706274 4.46437
upperback 4.824 0.0577049 1.08803
thorax -6.44399 -0.0544034 -1.3832
lowerneck -13.9137 -0.408293 -2.6265
upperneck 37.6122 0.507929 -1.39988
head 15.5892 -0.435225 -0.0657875
rclavicle -1.92821e-014 6.36111e-015
rhumerus -34.757 -8.41772 -17.1636
rradius 35.2659
rwrist 3.98143
rhand -20.1872 -45.9531
rfingers 7.12502
rthumb 6.15908 -75.8435
lclavicle -1.92821e-014 6.36111e-015
lhumerus -36.1031 7.97785 12.6929
lradius 28.7276
lwrist 16.4663
lhand -22.5304 -28.6321
lfingers 7.12502
lthumb 3.89663 1.31199
rfemur -99.7605 0.160198 27.9987
rtibia 95.4277
rfoot 49.3558 2.48024
rtoes -0.868735
lfemur -28.6567 4.80091 -24.2616
ltibia 40.8374
lfoot -17.0537 11.2645
ltoes 15.7359
935
root 5.22411 16.9648 1.80004 7.2341 -15.1338 -6.38115
lowerback 21.0106 -0.710158 4.33805
upperback 4.73551 0.0328359 1.07805
thorax -6.57431 -0.0677078 -1.31529
lowerneck -13.7435 -0.408458 -2.72364
upperneck 37.6408 0.510488 -1.34924
head 15.5625 -0.44107 -0.0262859
rclavicle 5.96354e-015 3.10104e-014
rhumerus -34.7266 -8.49364 -17.0079
rradius 35.02
rwrist 4.25064
rhand -20.3887 -45.4386
rfingers 7.12502
rthumb 5.9645 -75.3347
lclavicle 5.96354e-015 3.10104e-014
lhumerus -36.145 7.84234 12.7332
lradius 28.7263
lwrist 16.4692
lhand -25.78 -20.7806
lfingers 7.12502
lthumb 0.758212 9.19784
rfemur -99.8354 0.0441775 27.8353
rtibia 95.5184
rfoot 49.3721 2.29243
rtoes -0.63132
lfemur -28.6174 4.73151 -24.4449
ltibia 40.8024
lfoot -17.0371 11.2984
ltoes 15.6981
936
root 5.22225 16.9629 1.79756 7.28582 -15.167 -6.47022
lowerback 21.1013 -0.716011 4.34258
upperback 4.687 0.0360994 1.1165
thorax -6.67471 -0.0685121 -1.27677
lowerneck -13.7978 -0.391414 -2.72108
upperneck 37.6579 0.540241 -1.35768
head 15.584 -0.430331 -0.0257321
rclavicle 1.87852e-014 -5.56597e-015
rhumerus -34.5977 -8.50983 -17.006
rradius 34.891
rwrist 4.27684
rhand -20.4377 -45.418
rfingers 7.12502
rthumb 5.91724 -75.3154
lclavicle 1.87852e-014 -5.56597e-015
lhumerus -36.2658 7.73613 12.7292
lradius 28.7769
lwrist 16.5861
lhand -26.7677 -18.1
lfingers 7.12502
lthumb -0.195713 11.8797
rfemur -99.8407 0.133286 27.9229
rtibia 95.5055
rfoot 49.3828 2.24094
rtoes -0.557452
lfemur -28.6658 4.79082 -24.3516
ltibia 40.8132
lfoot -17.0046 11.3444
ltoes 15.5772
937
root 5.22049 16.963 1.79806 7.32806 -15.2933 -6.61361
lowerback 21.1244 -0.679225 4.39914
upperback 4.68316 0.0994678 1.14925
thorax -6.68739 -0.0392662 -1.29011
lowerneck -13.9102 -0.418172 -2.75987
upperneck 37.6568 0.477742 -1.25499
head 15.6101 -0.44828 0.0142386
rclavicle 7.7526e-015 -1.07344e-014
rhumerus -34.5901 -8.43958 -17.0382
rradius 34.9425
rwrist 4.20494
rhand -20.4187 -45.708
rfingers 7.12502
rthumb 5.93559 -75.6049
lclavicle 7.7526e-015 -1.07344e-014
lhumerus -36.2701 7.78028 12.6884
lradius 28.7586
lwrist 16.5811
lhand -26.5706 -18.8499
lfingers 7.12502
lthumb -0.00533136 11.1298
rfemur -99.7724 0.327877 28.0472
rtibia 95.4552
rfoot 49.4005 2.03725
rtoes -0.513157
lfemur -28.6903 4.91731 -24.1993
ltibia 40.8553
lfoot -17.0336 11.3867
ltoes 15.4689
938
root 5.22059 16.9645 1.80149 7.32838 -15.3826 -6.70018
lowerback 21.0848 -0.646043 4.4855
upperback 4.6917 0.159321 1.16445
thorax -6.65349 -0.0111059 -1.33857
lowerneck -13.9098 -0.439577 -2.79177
upperneck 37.6379 0.424766 -1.17455
head 15.6003 -0.463368 0.0455572
rclavicle 1.21259e-014 1.11319e-014
rhumerus -34.7255 -8.28178 -17.0505
rradius 35.1508
rwrist 4.06206
rhand -20.3896 -45.9999
rfingers 7.12502
rthumb 5.96371 -75.8959
lclavicle 1.21259e-014 1.11319e-014
lhumerus -36.1785 7.94809 12.6304
lradius 28.5982
lwrist 16.3025
lhand -26.4122 -20.3253
lfingers 7.12502
lthumb 0.147662 9.65435
rfemur -99.6809 0.434217 28.1241
rtibia 95.4394
rfoot 49.41 1.68431
rtoes -0.363689
lfemur -28.6781 4.97643 -24.1099
ltibia 40.9026
lfoot -17.1195 11.3741
ltoes 15.6305
